<svg width="970" height="155" viewBox="0 0 970 155" fill="none" xmlns="http://www.w3.org/2000/svg">
<g opacity="0.4">
<g opacity="0.3">
<path d="M65.4257 141.657L47.0001 9.84921H79.8869L91.4558 119.09H96.1931L113.023 9.84921H166.18L183.01 119.09H187.747L199.316 9.84921H232.203L213.778 141.657H158.8L141.97 32.4158H137.233L120.403 141.657H65.4257ZM304.31 145.372C291.32 145.372 279.875 142.573 269.977 137C260.078 131.426 252.349 123.549 246.814 113.343C241.279 103.162 238.536 91.1483 238.536 77.326V74.1305C238.536 60.3082 241.254 48.3189 246.689 38.1132C252.125 27.9322 259.754 20.0302 269.578 14.4567C279.402 8.88313 290.796 6.08398 303.786 6.08398C316.776 6.08398 327.722 8.95744 337.197 14.7291C346.671 20.5008 354.026 28.4524 359.287 38.6581C364.548 48.8391 367.191 60.6797 367.191 74.1305V85.55H272.221C272.57 94.5915 275.911 101.949 282.219 107.621C288.527 113.294 296.256 116.118 305.382 116.118C314.507 116.118 321.514 114.086 325.902 109.999C330.29 105.937 333.606 101.404 335.9 96.4493L363.002 110.792C360.534 115.399 356.993 120.403 352.356 125.803C347.693 131.203 341.535 135.811 333.806 139.626C326.076 143.44 316.278 145.348 304.335 145.348H304.31V145.372ZM272.47 60.5806H333.506C332.808 52.9759 329.766 46.8574 324.431 42.2499C319.07 37.6425 312.114 35.3388 303.512 35.3388C294.91 35.3388 287.455 37.6425 282.194 42.2499C276.933 46.8574 273.692 52.9759 272.47 60.5806ZM615.051 145.372C605.751 145.372 597.423 143.738 590.068 140.468C582.713 137.198 576.878 132.417 572.565 126.125C568.277 119.833 566.132 112.179 566.132 103.138C566.132 94.0961 568.277 86.5161 572.565 80.4224C576.854 74.3039 582.838 69.6964 590.467 66.6C598.097 63.5036 606.823 61.943 616.647 61.943H652.426V54.5117C652.426 48.3189 650.506 43.216 646.641 39.2279C642.777 35.2397 636.643 33.258 628.216 33.258C619.788 33.258 613.829 35.1654 609.79 38.9801C605.751 42.7949 603.133 47.6996 601.886 53.719L571.368 43.3647C573.463 36.6269 576.854 30.4836 581.491 24.8853C586.129 19.3118 592.362 14.7787 600.166 11.3355C607.97 7.89228 617.495 6.1583 628.714 6.1583C645.893 6.1583 659.507 10.4933 669.505 19.188C679.503 27.8826 684.49 40.4416 684.49 56.9145V106.085C684.49 111.411 686.933 114.062 691.845 114.062H698.702V141.706H680.276C673.793 141.706 668.433 140.121 664.219 136.925C660.005 133.73 657.911 129.494 657.911 124.168V123.896H652.924C652.226 126.026 650.631 128.825 648.187 132.269C645.719 135.712 641.879 138.783 636.618 141.434C631.357 144.084 624.152 145.422 615.051 145.422V145.372ZM620.836 118.273C630.136 118.273 637.715 115.672 643.599 110.42C649.484 105.194 652.401 98.2329 652.401 89.563V86.9124H618.991C612.857 86.9124 608.02 88.2501 604.529 90.9006C601.014 93.5511 599.268 97.2916 599.268 102.072C599.268 106.853 601.113 110.767 604.804 113.764C608.494 116.787 613.829 118.273 620.861 118.273H620.836ZM708.775 141.657V9.84921H741.387V24.7367H746.124C748.044 19.4109 751.261 15.5218 755.724 13.0447C760.187 10.5676 765.423 9.32901 771.382 9.32901H787.164V39.104H770.858C762.431 39.104 755.499 41.3582 750.064 45.8913C744.629 50.3997 741.911 57.3604 741.911 66.7487V141.706H708.75V141.657H708.775ZM797.162 141.657V9.30424H830.324V58.4751H835.061L878.22 9.84921H921.379L861.141 73.6351L923.499 141.682H880.888L835.111 89.3152H830.373V141.682H797.162V141.657ZM521.377 36.7012V141.657H554.538V9.82444H380.879V141.657H414.015V36.7012H451.141V141.657H484.277V36.7012H521.377Z" fill="#E0E0E0"/>
</g>
</g>
</svg>
